<?xml version="1.0" encoding="utf-8"?>
<!-- Generator: Adobe Illustrator 26.3.1, SVG Export Plug-In . SVG Version: 6.00 Build 0)  -->
<svg version="1.1" id="Layer_1" xmlns="http://www.w3.org/2000/svg" xmlns:xlink="http://www.w3.org/1999/xlink" x="0px" y="0px"
	 viewBox="0 0 1366 768" style="enable-background:new 0 0 1366 768;" xml:space="preserve">
<g>
	<g>
		<path d="M227.92,152.41c-1.9,1.73-5.03,2.59-9.4,2.59h-14.4v-50.4h13.54c4.27,0,7.4,0.86,9.4,2.59c1.99,1.73,2.99,4.61,2.99,8.64
			v4.1c0,3.7-1.32,6.48-3.96,8.35c3.12,1.73,4.68,4.68,4.68,8.86v6.48C230.76,147.75,229.81,150.68,227.92,152.41z M222.52,111.22
			c-0.84-0.82-2.17-1.22-4-1.22h-8.14v15.91h8.14c1.49,0,2.74-0.48,3.74-1.44c1.01-0.96,1.51-2.23,1.51-3.82v-5.47
			C223.78,113.36,223.36,112.04,222.52,111.22z M223.06,132.72c-0.96-0.94-2.23-1.4-3.82-1.4h-8.86v18.29h8.78
			c1.82,0,3.17-0.42,4.03-1.26c0.86-0.84,1.3-2.17,1.3-4v-7.85C224.5,134.91,224.02,133.65,223.06,132.72z"/>
		<path d="M249.34,142.26L246.53,155h-6.41l12.17-50.4h8.28l11.95,50.4h-6.41l-2.74-12.74H249.34z M262.22,136.86l-5.9-27.5
			l-5.83,27.5H262.22z"/>
		<path d="M305.67,152.41c-1.9,1.73-5.03,2.59-9.4,2.59h-14.4v-50.4h13.54c4.27,0,7.4,0.86,9.4,2.59c1.99,1.73,2.99,4.61,2.99,8.64
			v4.1c0,3.7-1.32,6.48-3.96,8.35c3.12,1.73,4.68,4.68,4.68,8.86v6.48C308.52,147.75,307.57,150.68,305.67,152.41z M300.27,111.22
			c-0.84-0.82-2.17-1.22-4-1.22h-8.14v15.91h8.14c1.49,0,2.74-0.48,3.74-1.44c1.01-0.96,1.51-2.23,1.51-3.82v-5.47
			C301.53,113.36,301.11,112.04,300.27,111.22z M300.81,132.72c-0.96-0.94-2.23-1.4-3.82-1.4h-8.86v18.29h8.78
			c1.82,0,3.17-0.42,4.03-1.26c0.86-0.84,1.3-2.17,1.3-4v-7.85C302.25,134.91,301.77,133.65,300.81,132.72z"/>
		<path d="M330.69,155v-23.4l-12.89-27h6.91l9.5,20.95l9.5-20.95h6.55l-13.1,27V155H330.69z"/>
		<path d="M364.82,134.12V155h-6.26v-50.4h13.54c4.08,0,7.16,0.9,9.25,2.7c2.09,1.8,3.13,4.64,3.13,8.53v6.91
			c0,5.42-2.16,8.81-6.48,10.15l10.01,22.1h-6.84l-9.29-20.88H364.82z M376.95,111.22c-0.84-0.82-2.17-1.22-4-1.22h-8.14v18.72h8.14
			c1.82,0,3.16-0.42,4-1.26c0.84-0.84,1.26-2.17,1.26-4v-8.28C378.21,113.36,377.79,112.04,376.95,111.22z"/>
		<path d="M413.49,155v-11.23h-14.83v-6.19l7.7-32.98h5.83l-7.34,33.91h8.64V122.1h6.12v16.42h5.4v5.26h-5.4V155H413.49z"/>
		<path d="M453.6,138.08h-5.98l-7.06-28.3V155h-5.47v-50.4h10.01l5.76,25.78l5.83-25.78h9.72V155h-5.62v-45.22L453.6,138.08z"/>
		<path d="M501.62,104.6v5.26h-17.78v16.49h15.98v5.26h-15.98v18.14h17.78V155h-24.05v-50.4H501.62z"/>
		<path d="M520.56,155h-5.83v-50.4h10.22l11.38,45.07V104.6h5.83V155h-10.3l-11.3-45.07V155z"/>
		<path d="M564.98,111.08v-6.48h6.84v6.48l-3.96,11.3h-5.04L564.98,111.08z"/>
		<path d="M615.05,151.94c-2.23,2.04-5.44,3.06-9.61,3.06h-10.22v-5.47h10.94c1.77,0,3.21-0.53,4.32-1.58
			c1.1-1.06,1.66-2.33,1.66-3.82v-7.49c0-1.44-0.37-2.6-1.12-3.49c-0.74-0.89-1.86-1.33-3.35-1.33h-2.16
			c-3.55,0-6.36-1.04-8.42-3.13c-2.06-2.09-3.1-5.12-3.1-9.11v-2.74c0-4.08,1.12-7.14,3.35-9.18c2.23-2.04,5.44-3.06,9.61-3.06h10.3
			v5.47h-11.02c-1.78,0-3.22,0.53-4.32,1.58c-1.1,1.06-1.66,2.33-1.66,3.82v5.47c0,1.49,0.48,2.73,1.44,3.71
			c0.96,0.98,2.21,1.48,3.74,1.48h2.16c3.41,0,6.06,0.98,7.96,2.95c1.9,1.97,2.84,4.94,2.84,8.93v4.75
			C618.4,146.84,617.29,149.9,615.05,151.94z"/>
		<path d="M680.83,155v-44.93h-11.45v-5.47h29.16v5.47h-11.45V155H680.83z"/>
		<path d="M734.9,104.6v5.26h-17.78v16.49h15.98v5.26h-15.98v18.14h17.78V155h-24.05v-50.4H734.9z"/>
		<path d="M753.62,134.12V155h-6.26v-50.4h13.54c4.08,0,7.16,0.9,9.25,2.7c2.09,1.8,3.13,4.64,3.13,8.53v6.91
			c0,5.42-2.16,8.81-6.48,10.15L776.8,155h-6.84l-9.29-20.88H753.62z M765.75,111.22c-0.84-0.82-2.17-1.22-4-1.22h-8.14v18.72h8.14
			c1.82,0,3.16-0.42,4-1.26c0.84-0.84,1.26-2.17,1.26-4v-8.28C767.01,113.36,766.59,112.04,765.75,111.22z"/>
		<path d="M803.51,138.08h-5.98l-7.06-28.3V155h-5.47v-50.4h10.01l5.76,25.78l5.83-25.78h9.72V155h-5.62v-45.22L803.51,138.08z"/>
		<path d="M836.34,149.74v-39.89h-6.48v-5.26h19.22v5.26h-6.48v39.89h6.48V155h-19.22v-5.26H836.34z"/>
		<path d="M870.47,155h-5.83v-50.4h10.22l11.38,45.07V104.6h5.83V155h-10.3l-11.3-45.07V155z"/>
		<path d="M910.29,142.26L907.48,155h-6.41l12.17-50.4h8.28l11.95,50.4h-6.41l-2.74-12.74H910.29z M923.17,136.86l-5.9-27.5
			l-5.83,27.5H923.17z"/>
		<path d="M951.25,104.6v44.93h16.06V155h-22.32v-50.4H951.25z"/>
	</g>
</g>
<g>
	<g>
	</g>
</g>
</svg>
